<?xml version="1.0" encoding="UTF-8"?>
<svg id="Ebene_1" data-name="Ebene 1" xmlns="http://www.w3.org/2000/svg" viewBox="0 0 81.94 81.94">
  <defs>
    <style>
      .cls-1 {
        fill: #fff;
      }

      .cls-2 {
        fill: #e52521;
      }
    </style>
  </defs>
  <circle class="cls-1" cx="40.97" cy="40.97" r="40.97"/>
  <g>
    <circle class="cls-1" cx="40.98" cy="40.97" r="35.97"/>
    <path class="cls-2" d="m40.97,10c17.08,0,30.97,13.89,30.97,30.97s-13.89,30.97-30.97,30.97-30.97-13.89-30.97-30.97,13.89-30.97,30.97-30.97M40.97,0c-22.63,0-40.97,18.34-40.97,40.97s18.34,40.97,40.97,40.97,40.97-18.34,40.97-40.97S63.6,0,40.97,0h0Z"/>
  </g>
  <g>
    <path d="m22.09,44.84c0-2.95,1.76-5.04,4.64-6.26l-.04-.11c-2.59-1.22-3.71-3.24-3.71-5.26,0-3.71,3.13-6.23,7.23-6.23,4.54,0,6.8,2.84,6.8,5.76,0,1.98-.97,4.1-3.85,5.47v.11c2.92,1.15,4.72,3.2,4.72,6.05,0,4.07-3.49,6.8-7.96,6.8-4.9,0-7.85-2.92-7.85-6.34Zm12.6-.14c0-2.84-1.98-4.21-5.15-5.11-2.74.79-4.21,2.59-4.21,4.82-.11,2.38,1.69,4.46,4.68,4.46s4.68-1.76,4.68-4.18Zm-8.71-11.7c0,2.34,1.76,3.6,4.46,4.32,2.02-.68,3.56-2.12,3.56-4.25,0-1.87-1.12-3.82-3.96-3.82-2.63,0-4.07,1.73-4.07,3.74Z"/>
    <path d="m56.39,38.83c0,7.96-2.95,12.35-8.13,12.35-4.57,0-7.67-4.28-7.74-12.02,0-7.85,3.38-12.17,8.13-12.17s7.74,4.39,7.74,11.84Zm-12.71.36c0,6.08,1.87,9.54,4.75,9.54,3.24,0,4.79-3.78,4.79-9.75s-1.48-9.54-4.75-9.54c-2.77,0-4.79,3.38-4.79,9.75Z"/>
  </g>
</svg>