<?xml version="1.0" encoding="UTF-8"?>
<svg id="Ebene_1" data-name="Ebene 1" xmlns="http://www.w3.org/2000/svg" viewBox="0 0 81.94 81.94">
  <defs>
    <style>
      .cls-1 {
        fill: #fff;
      }

      .cls-2 {
        fill: #e52521;
      }
    </style>
  </defs>
  <circle class="cls-1" cx="40.97" cy="40.97" r="40.97"/>
  <g>
    <circle class="cls-1" cx="40.98" cy="40.97" r="35.97"/>
    <path class="cls-2" d="m40.97,10c17.08,0,30.97,13.89,30.97,30.97s-13.89,30.97-30.97,30.97-30.97-13.89-30.97-30.97,13.89-30.97,30.97-30.97M40.97,0c-22.63,0-40.97,18.34-40.97,40.97s18.34,40.97,40.97,40.97,40.97-18.34,40.97-40.97S63.6,0,40.97,0h0Z"/>
  </g>
  <g>
    <path d="m37.57,27.38v2.09l-10.19,21.31h-3.28l10.15-20.7v-.07h-11.45v-2.63h14.76Z"/>
    <path d="m56.39,38.83c0,7.96-2.95,12.35-8.13,12.35-4.57,0-7.67-4.28-7.74-12.02,0-7.85,3.38-12.17,8.13-12.17s7.74,4.39,7.74,11.84Zm-12.71.36c0,6.08,1.87,9.54,4.75,9.54,3.24,0,4.79-3.78,4.79-9.75s-1.48-9.54-4.75-9.54c-2.77,0-4.79,3.38-4.79,9.75Z"/>
  </g>
</svg>