<?xml version="1.0" encoding="UTF-8"?>
<svg id="Ebene_1" data-name="Ebene 1" xmlns="http://www.w3.org/2000/svg" viewBox="0 0 81.94 81.94">
  <defs>
    <style>
      .cls-1 {
        fill: #fff;
      }

      .cls-2 {
        fill: #e52521;
      }
    </style>
  </defs>
  <circle class="cls-1" cx="40.97" cy="40.97" r="40.97"/>
  <g>
    <circle class="cls-1" cx="40.98" cy="40.97" r="35.97"/>
    <path class="cls-2" d="m40.97,10c17.08,0,30.97,13.89,30.97,30.97s-13.89,30.97-30.97,30.97-30.97-13.89-30.97-30.97,13.89-30.97,30.97-30.97M40.97,0c-22.63,0-40.97,18.34-40.97,40.97s18.34,40.97,40.97,40.97,40.97-18.34,40.97-40.97S63.6,0,40.97,0h0Z"/>
  </g>
  <g>
    <path d="m24.21,48.55c.68.07,1.48,0,2.56-.11,1.84-.25,3.56-1.01,4.9-2.27,1.55-1.4,2.66-3.46,3.1-6.23h-.11c-1.3,1.58-3.17,2.52-5.51,2.52-4.21,0-6.91-3.17-6.91-7.16,0-4.43,3.2-8.31,7.99-8.31s7.74,3.89,7.74,9.86c0,5.15-1.73,8.75-4.03,10.98-1.8,1.76-4.28,2.84-6.8,3.13-1.15.18-2.16.22-2.92.18v-2.59Zm1.15-13.46c0,2.92,1.76,4.97,4.5,4.97,2.12,0,3.78-1.04,4.61-2.45.18-.29.29-.65.29-1.15,0-4-1.48-7.06-4.79-7.06-2.7,0-4.61,2.38-4.61,5.69Z"/>
    <path d="m56.39,38.83c0,7.96-2.95,12.35-8.13,12.35-4.57,0-7.67-4.28-7.74-12.02,0-7.85,3.38-12.17,8.13-12.17s7.74,4.39,7.74,11.84Zm-12.71.36c0,6.08,1.87,9.54,4.75,9.54,3.24,0,4.79-3.78,4.79-9.75s-1.48-9.54-4.75-9.54c-2.77,0-4.79,3.38-4.79,9.75Z"/>
  </g>
</svg>