<?xml version="1.0" encoding="UTF-8"?>
<svg id="Ebene_1" data-name="Ebene 1" xmlns="http://www.w3.org/2000/svg" viewBox="0 0 81.94 81.94">
  <defs>
    <style>
      .cls-1 {
        fill: #fff;
      }

      .cls-2 {
        fill: #e52521;
      }
    </style>
  </defs>
  <circle class="cls-1" cx="40.97" cy="40.97" r="40.97"/>
  <g>
    <circle class="cls-1" cx="40.98" cy="40.97" r="35.97"/>
    <path class="cls-2" d="m40.97,10c17.08,0,30.97,13.89,30.97,30.97s-13.89,30.97-30.97,30.97-30.97-13.89-30.97-30.97,13.89-30.97,30.97-30.97M40.97,0c-22.63,0-40.97,18.34-40.97,40.97s18.34,40.97,40.97,40.97,40.97-18.34,40.97-40.97S63.6,0,40.97,0h0Z"/>
  </g>
  <g>
    <path d="m35.73,29.62c-.65-.04-1.48,0-2.38.14-4.97.83-7.6,4.46-8.14,8.31h.11c1.12-1.48,3.06-2.7,5.65-2.7,4.14,0,7.06,2.99,7.06,7.56,0,4.28-2.92,8.24-7.77,8.24s-8.28-3.89-8.28-9.97c0-4.61,1.66-8.24,3.96-10.55,1.94-1.91,4.54-3.1,7.49-3.46.94-.14,1.73-.18,2.3-.18v2.59Zm-.9,13.5c0-3.35-1.91-5.36-4.82-5.36-1.91,0-3.67,1.19-4.54,2.88-.22.36-.36.83-.36,1.4.07,3.85,1.84,6.7,5.15,6.7,2.74,0,4.57-2.27,4.57-5.62Z"/>
    <path d="m56.39,38.83c0,7.96-2.95,12.35-8.13,12.35-4.57,0-7.67-4.28-7.74-12.02,0-7.85,3.38-12.17,8.13-12.17s7.74,4.39,7.74,11.84Zm-12.71.36c0,6.08,1.87,9.54,4.75,9.54,3.24,0,4.79-3.78,4.79-9.75s-1.48-9.54-4.75-9.54c-2.77,0-4.79,3.38-4.79,9.75Z"/>
  </g>
</svg>