<?xml version="1.0" encoding="UTF-8"?>
<svg id="Ebene_1" data-name="Ebene 1" xmlns="http://www.w3.org/2000/svg" viewBox="0 0 81.94 81.94">
  <defs>
    <style>
      .cls-1 {
        fill: #fff;
      }

      .cls-2 {
        fill: #e52521;
      }
    </style>
  </defs>
  <circle class="cls-1" cx="40.97" cy="40.97" r="40.97"/>
  <g>
    <circle class="cls-1" cx="40.98" cy="40.97" r="35.97"/>
    <path class="cls-2" d="m40.97,10c17.08,0,30.97,13.89,30.97,30.97s-13.89,30.97-30.97,30.97-30.97-13.89-30.97-30.97,13.89-30.97,30.97-30.97M40.97,0c-22.63,0-40.97,18.34-40.97,40.97s18.34,40.97,40.97,40.97,40.97-18.34,40.97-40.97S63.6,0,40.97,0h0Z"/>
  </g>
  <g>
    <path d="m21.69,32.1h-.07l-4.07,2.2-.61-2.41,5.11-2.74h2.7v23.4h-3.06v-20.45Z"/>
    <path d="m29.57,52.54v-1.94l2.48-2.41c5.98-5.69,8.67-8.71,8.71-12.24,0-2.38-1.15-4.57-4.64-4.57-2.12,0-3.89,1.08-4.97,1.98l-1.01-2.23c1.62-1.37,3.92-2.38,6.62-2.38,5.04,0,7.16,3.46,7.16,6.8,0,4.32-3.13,7.81-8.06,12.56l-1.87,1.73v.07h10.51v2.63h-14.94Z"/>
    <path d="m62.25,40.59c0,7.96-2.95,12.35-8.14,12.35-4.57,0-7.67-4.28-7.74-12.02,0-7.85,3.38-12.17,8.13-12.17s7.74,4.39,7.74,11.84Zm-12.71.36c0,6.08,1.87,9.54,4.75,9.54,3.24,0,4.79-3.78,4.79-9.75s-1.48-9.54-4.75-9.54c-2.77,0-4.79,3.38-4.79,9.75Z"/>
  </g>
</svg>